<svg height="512" viewBox="0 0 60 60" width="512" xmlns="http://www.w3.org/2000/svg"><g id="Page-1" fill="none" fill-rule="evenodd"><g id="012---Edit-Calendar" fill="rgb(0,0,0)" fill-rule="nonzero"><path id="Shape" d="m11 18h-5c-1.1045695 0-2 .8954305-2 2v3c0 1.1045695.8954305 2 2 2h5c1.1045695 0 2-.8954305 2-2v-3c0-1.1045695-.8954305-2-2-2zm-5 5v-3h5v3z"/><path id="Shape" d="m22 18h-5c-1.1045695 0-2 .8954305-2 2v3c0 1.1045695.8954305 2 2 2h5c1.1045695 0 2-.8954305 2-2v-3c0-1.1045695-.8954305-2-2-2zm-5 5v-3h5v3z"/><path id="Shape" d="m28 25h5c1.1045695 0 2-.8954305 2-2v-3c0-1.1045695-.8954305-2-2-2h-5c-1.1045695 0-2 .8954305-2 2v3c0 1.1045695.8954305 2 2 2zm0-5h5v3h-5z"/><path id="Shape" d="m28 34h5c1.1045695 0 2-.8954305 2-2v-3c0-1.1045695-.8954305-2-2-2h-5c-1.1045695 0-2 .8954305-2 2v3c0 1.1045695.8954305 2 2 2zm0-5h5v3h-5z"/><path id="Shape" d="m39 25h5c1.1045695 0 2-.8954305 2-2v-3c0-1.1045695-.8954305-2-2-2h-5c-1.1045695 0-2 .8954305-2 2v3c0 1.1045695.8954305 2 2 2zm0-5h5v3h-5z"/><path id="Shape" d="m11 27h-5c-1.1045695 0-2 .8954305-2 2v3c0 1.1045695.8954305 2 2 2h5c1.1045695 0 2-.8954305 2-2v-3c0-1.1045695-.8954305-2-2-2zm-5 5v-3h5v3z"/><path id="Shape" d="m22 27h-5c-1.1045695 0-2 .8954305-2 2v3c0 1.1045695.8954305 2 2 2h5c1.1045695 0 2-.8954305 2-2v-3c0-1.1045695-.8954305-2-2-2zm-5 5v-3h5v3z"/><path id="Shape" d="m11 36h-5c-1.1045695 0-2 .8954305-2 2v3c0 1.1045695.8954305 2 2 2h5c1.1045695 0 2-.8954305 2-2v-3c0-1.1045695-.8954305-2-2-2zm-5 5v-3h5v3z"/><path id="Shape" d="m22 36h-5c-1.1045695 0-2 .8954305-2 2v3c0 1.1045695.8954305 2 2 2h5c1.1045695 0 2-.8954305 2-2v-3c0-1.1045695-.8954305-2-2-2zm-5 5v-3h5v3z"/><path id="Shape" d="m54.6 22.912c-1.2313891-1.1748595-3.1686109-1.1748595-4.4 0l-.2.2v-17.112c0-1.65685425-1.3431458-3-3-3h-1c0-1.65685425-1.3431458-3-3-3s-3 1.34314575-3 3h-30c-.00000002-1.65685423-1.34314577-2.99999996-3-2.99999996s-2.99999998 1.34314573-3 2.99999996h-1c-1.65685425 0-3 1.34314575-3 3v39c0 1.6568542 1.34314575 3 3 3h22.285l-3.185 9.536c-.2254361.6717238-.0512044 1.4131723.4498117 1.9141883.501016.5010161 1.2424645.6752478 1.9141883.4498117l9.572-3.2v-.01c.1475425-.045239.282466-.1243439.394-.231l22.413-22.414 2.245-2.245c1.2135209-1.2156497 1.2135209-3.1843503 0-4.4zm-27.919 27.22 5.187 5.187-2.36.789-3.616-3.616zm.98-1.849 21-21 2.324 2.317-21 21zm5.339-8.167-.884.884h-4.116v-3h5zm11-11-2.884 2.884h-2.116v-3h5zm-2-26.116c0-.55228475.4477153-1 1-1s1 .44771525 1 1v4c0 .55228475-.4477153 1-1 1s-1-.44771525-1-1zm-36 0c0-.55228475.44771525-1 1-1s1 .44771525 1 1v4c0 .55228475-.44771525 1-1 1s-1-.44771525-1-1zm-3 2h1v2c.00000002 1.65685423 1.34314577 2.99999996 3 2.99999996s2.99999998-1.34314573 3-2.99999996v-2h30v2c0 1.65685425 1.3431458 3 3 3s3-1.34314575 3-3v-2h1c.5522847 0 1 .44771525 1 1v6h-46v-6c0-.55228475.44771525-1 1-1zm-1 40v-31h46v11.113l-.042.041-2.492 2.496c-.3758007-.4127897-.9077709-.6486564-1.466-.65h-5c-1.1045695 0-2 .8954305-2 2v3c0 1.1045695.8954305 2 2 2h.116l-4.116 4.116v-.116c0-1.1045695-.8954305-2-2-2h-5c-1.1045695 0-2 .8954305-2 2v3c0 1.1045695.8954305 2 2 2h2.116l-3 3h-24.116c-.55228475 0-1-.4477153-1-1zm22.077 12.923 1.107-3.311 2.2 2.2zm9.642-3.582-2.319-2.323 21-21 2.323 2.323zm23.955-23.956-1.539 1.539-6.059-6.059 1.539-1.539c.4406176-.420955 1.1343824-.420955 1.575 0l4.484 4.484c.4347549.4349944.4347549 1.1400056 0 1.575z"/></g></g></svg>